<svg xmlns="http://www.w3.org/2000/svg" width="32" height="32" viewBox="0 0 32 32" fill="none">
  <defs>
    <linearGradient id="chatGradient" x1="0%" y1="0%" x2="100%" y2="100%">
      <stop offset="0%" style="stop-color:#10B981;stop-opacity:1" />
      <stop offset="100%" style="stop-color:#059669;stop-opacity:1" />
    </linearGradient>
    <linearGradient id="bubbleGradient" x1="0%" y1="0%" x2="100%" y2="100%">
      <stop offset="0%" style="stop-color:#F3F4F6;stop-opacity:1" />
      <stop offset="100%" style="stop-color:#E5E7EB;stop-opacity:1" />
    </linearGradient>
  </defs>
  
  <!-- 主聊天气泡 -->
  <path d="M4 8C4 5.79086 5.79086 4 8 4H20C22.2091 4 24 5.79086 24 8V16C24 18.2091 22.2091 20 20 20H12L6 24V20C4.89543 20 4 19.1046 4 18V8Z" 
        fill="url(#chatGradient)" 
        stroke="none"/>
  
  <!-- AI 回复气泡 -->
  <path d="M8 12C8 9.79086 9.79086 8 12 8H24C26.2091 8 28 9.79086 28 12V20C28 22.2091 26.2091 24 24 24H16L10 28V24C8.89543 24 8 23.1046 8 22V12Z" 
        fill="url(#bubbleGradient)" 
        stroke="#10B981" 
        stroke-width="1.5"/>
  
  <!-- 对话点 -->
  <circle cx="10" cy="12" r="1.5" fill="white" opacity="0.9"/>
  <circle cx="14" cy="12" r="1.5" fill="white" opacity="0.7"/>
  <circle cx="18" cy="12" r="1.5" fill="white" opacity="0.5"/>
  
  <!-- AI 标识点 -->
  <circle cx="18" cy="16" r="1.5" fill="#10B981"/>
  <circle cx="22" cy="16" r="1.5" fill="#10B981" opacity="0.7"/>
</svg>
