<svg xmlns="http://www.w3.org/2000/svg" width="192" height="192" viewBox="0 0 192 192" fill="none">
  <defs>
    <linearGradient id="chatGradient192" x1="0%" y1="0%" x2="100%" y2="100%">
      <stop offset="0%" style="stop-color:#10B981;stop-opacity:1" />
      <stop offset="100%" style="stop-color:#059669;stop-opacity:1" />
    </linearGradient>
    <linearGradient id="bubbleGradient192" x1="0%" y1="0%" x2="100%" y2="100%">
      <stop offset="0%" style="stop-color:#F3F4F6;stop-opacity:1" />
      <stop offset="100%" style="stop-color:#E5E7EB;stop-opacity:1" />
    </linearGradient>
    <filter id="shadow" x="-20%" y="-20%" width="140%" height="140%">
      <dropShadow dx="4" dy="8" stdDeviation="8" flood-color="#000000" flood-opacity="0.1"/>
    </filter>
  </defs>
  
  <!-- 背景圆形 -->
  <circle cx="96" cy="96" r="88" fill="#ffffff" filter="url(#shadow)"/>
  
  <!-- 主聊天气泡 -->
  <path d="M24 48C24 34.7452 34.7452 24 48 24H120C133.255 24 144 34.7452 144 48V96C144 109.255 133.255 120 120 120H72L36 144V120C29.3726 120 24 114.627 24 108V48Z" 
        fill="url(#chatGradient192)" 
        stroke="none"/>
  
  <!-- AI 回复气泡 -->
  <path d="M48 72C48 58.7452 58.7452 48 72 48H144C157.255 48 168 58.7452 168 72V120C168 133.255 157.255 144 144 144H96L60 168V144C53.3726 144 48 138.627 48 132V72Z" 
        fill="url(#bubbleGradient192)" 
        stroke="#10B981" 
        stroke-width="3"/>
  
  <!-- 对话点 -->
  <circle cx="60" cy="72" r="6" fill="white" opacity="0.9"/>
  <circle cx="84" cy="72" r="6" fill="white" opacity="0.7"/>
  <circle cx="108" cy="72" r="6" fill="white" opacity="0.5"/>
  
  <!-- AI 标识点 -->
  <circle cx="108" cy="96" r="6" fill="#10B981"/>
  <circle cx="132" cy="96" r="6" fill="#10B981" opacity="0.7"/>
  
  <!-- AI 装饰元素 -->
  <path d="M84 108L90 102L96 108L90 114Z" fill="#10B981" opacity="0.3"/>
  <path d="M120 84L126 78L132 84L126 90Z" fill="#059669" opacity="0.3"/>
</svg>
